P2
5 5
255
0 -1 1 1 1
0 -1 1 1 1
0 -1 1 1 1
0 -1 1 1 1
0 -1 1 1 1
