P2
5 5
255
0 0 0 0 0
0 154 154 154 0
0 154 255 154 0
0 154 154 154 0
0 0 0 0 0
