P2
5 5
255
0 0 0 0 255
0 154 154 0 255
0 255 154 0 255
0 154 154 0 255
0 0 0 0 255
